<svg width="40" height="40" viewBox="0 0 40 40" fill="none" xmlns="http://www.w3.org/2000/svg">
<path d="M26.26 12.4073L32.5816 5.78448M36.1939 2L32.5816 5.78448L36.1939 2ZM18.8368 20.1844C19.7694 21.1485 20.5107 22.2963 21.0181 23.5617C21.5256 24.8271 21.7891 26.1852 21.7935 27.5578C21.7979 28.9304 21.5431 30.2903 21.0437 31.5593C20.5444 32.8282 19.8104 33.9812 18.884 34.9518C17.9576 35.9223 16.8571 36.6913 15.6458 37.2144C14.4346 37.7376 13.1366 38.0045 11.8264 37.9999C10.5163 37.9953 9.22 37.7193 8.01214 37.1877C6.80427 36.656 5.70871 35.8793 4.78854 34.9023C2.97901 32.9394 1.97774 30.3105 2.00038 27.5818C2.02301 24.853 3.06774 22.2427 4.90955 20.3131C6.75136 18.3835 9.24288 17.289 11.8475 17.2653C14.4521 17.2416 16.9614 18.2906 18.835 20.1863L18.8368 20.1844ZM18.8368 20.1844L26.26 12.4073L18.8368 20.1844ZM26.26 12.4073L31.6785 18.0841L38 11.4612L32.5816 5.78448L26.26 12.4073Z" stroke="white" stroke-width="3" stroke-linecap="round" stroke-linejoin="round"/>
</svg>
