<svg width="1920" height="130" viewBox="0 0 1920 130" fill="none" xmlns="http://www.w3.org/2000/svg">
<g filter="url(#filter0_b_66_52)">
<rect width="1920" height="130" fill="url(#paint0_linear_66_52)" fill-opacity="0.7"/>
</g>
<path d="M281.576 76.224C279.485 76.224 277.565 75.7333 275.816 74.752C274.067 73.7707 272.68 72.416 271.656 70.688C270.632 68.9387 270.12 66.9653 270.12 64.768C270.12 62.592 270.632 60.64 271.656 58.912C272.68 57.1627 274.067 55.7973 275.816 54.816C277.565 53.8347 279.485 53.344 281.576 53.344C283.688 53.344 285.608 53.8347 287.336 54.816C289.085 55.7973 290.461 57.1627 291.464 58.912C292.488 60.64 293 62.592 293 64.768C293 66.9653 292.488 68.9387 291.464 70.688C290.461 72.416 289.085 73.7707 287.336 74.752C285.587 75.7333 283.667 76.224 281.576 76.224ZM281.576 72.224C282.92 72.224 284.104 71.9253 285.128 71.328C286.152 70.7093 286.952 69.8347 287.528 68.704C288.104 67.5733 288.392 66.2613 288.392 64.768C288.392 63.2747 288.104 61.9733 287.528 60.864C286.952 59.7333 286.152 58.8693 285.128 58.272C284.104 57.6747 282.92 57.376 281.576 57.376C280.232 57.376 279.037 57.6747 277.992 58.272C276.968 58.8693 276.168 59.7333 275.592 60.864C275.016 61.9733 274.728 63.2747 274.728 64.768C274.728 66.2613 275.016 67.5733 275.592 68.704C276.168 69.8347 276.968 70.7093 277.992 71.328C279.037 71.9253 280.232 72.224 281.576 72.224ZM300.813 60.832C301.389 60.0213 302.178 59.3493 303.181 58.816C304.205 58.2613 305.368 57.984 306.669 57.984C308.184 57.984 309.549 58.3573 310.765 59.104C312.002 59.8507 312.973 60.9173 313.677 62.304C314.402 63.6693 314.765 65.2587 314.765 67.072C314.765 68.8853 314.402 70.496 313.677 71.904C312.973 73.2907 312.002 74.368 310.765 75.136C309.549 75.904 308.184 76.288 306.669 76.288C305.368 76.288 304.216 76.0213 303.213 75.488C302.232 74.9547 301.432 74.2827 300.813 73.472V84.448H296.333V58.272H300.813V60.832ZM310.189 67.072C310.189 66.0053 309.965 65.088 309.517 64.32C309.09 63.5307 308.514 62.9333 307.789 62.528C307.085 62.1227 306.317 61.92 305.485 61.92C304.674 61.92 303.906 62.1333 303.181 62.56C302.477 62.9653 301.901 63.5627 301.453 64.352C301.026 65.1413 300.813 66.0693 300.813 67.136C300.813 68.2027 301.026 69.1307 301.453 69.92C301.901 70.7093 302.477 71.3173 303.181 71.744C303.906 72.1493 304.674 72.352 305.485 72.352C306.317 72.352 307.085 72.1387 307.789 71.712C308.514 71.2853 309.09 70.6773 309.517 69.888C309.965 69.0987 310.189 68.16 310.189 67.072ZM323.237 61.952V70.528C323.237 71.1253 323.375 71.5627 323.653 71.84C323.951 72.096 324.442 72.224 325.125 72.224H327.205V76H324.389C320.613 76 318.725 74.1653 318.725 70.496V61.952H316.613V58.272H318.725V53.888H323.237V58.272H327.205V61.952H323.237ZM332.699 56.16C331.909 56.16 331.248 55.9147 330.715 55.424C330.203 54.912 329.947 54.2827 329.947 53.536C329.947 52.7893 330.203 52.1707 330.715 51.68C331.248 51.168 331.909 50.912 332.699 50.912C333.488 50.912 334.139 51.168 334.651 51.68C335.184 52.1707 335.451 52.7893 335.451 53.536C335.451 54.2827 335.184 54.912 334.651 55.424C334.139 55.9147 333.488 56.16 332.699 56.16ZM334.907 58.272V76H330.427V58.272H334.907ZM347.205 76.288C345.498 76.288 343.962 75.9147 342.597 75.168C341.232 74.4 340.154 73.3227 339.365 71.936C338.597 70.5493 338.213 68.9493 338.213 67.136C338.213 65.3227 338.608 63.7227 339.397 62.336C340.208 60.9493 341.306 59.8827 342.693 59.136C344.08 58.368 345.626 57.984 347.333 57.984C349.04 57.984 350.586 58.368 351.973 59.136C353.36 59.8827 354.448 60.9493 355.237 62.336C356.048 63.7227 356.453 65.3227 356.453 67.136C356.453 68.9493 356.037 70.5493 355.205 71.936C354.394 73.3227 353.285 74.4 351.877 75.168C350.49 75.9147 348.933 76.288 347.205 76.288ZM347.205 72.384C348.016 72.384 348.773 72.192 349.477 71.808C350.202 71.4027 350.778 70.8053 351.205 70.016C351.632 69.2267 351.845 68.2667 351.845 67.136C351.845 65.4507 351.397 64.16 350.501 63.264C349.626 62.3467 348.549 61.888 347.269 61.888C345.989 61.888 344.912 62.3467 344.037 63.264C343.184 64.16 342.757 65.4507 342.757 67.136C342.757 68.8213 343.173 70.1227 344.005 71.04C344.858 71.936 345.925 72.384 347.205 72.384ZM369.563 58.016C371.675 58.016 373.382 58.688 374.683 60.032C375.985 61.3547 376.635 63.2107 376.635 65.6V76H372.155V66.208C372.155 64.8 371.803 63.7227 371.099 62.976C370.395 62.208 369.435 61.824 368.219 61.824C366.982 61.824 366.001 62.208 365.275 62.976C364.571 63.7227 364.219 64.8 364.219 66.208V76H359.739V58.272H364.219V60.48C364.817 59.712 365.574 59.1147 366.491 58.688C367.43 58.24 368.454 58.016 369.563 58.016Z" fill="white"/>
<path d="M441.576 76.224C439.485 76.224 437.565 75.7333 435.816 74.752C434.067 73.7707 432.68 72.416 431.656 70.688C430.632 68.9387 430.12 66.9653 430.12 64.768C430.12 62.592 430.632 60.64 431.656 58.912C432.68 57.1627 434.067 55.7973 435.816 54.816C437.565 53.8347 439.485 53.344 441.576 53.344C443.688 53.344 445.608 53.8347 447.336 54.816C449.085 55.7973 450.461 57.1627 451.464 58.912C452.488 60.64 453 62.592 453 64.768C453 66.9653 452.488 68.9387 451.464 70.688C450.461 72.416 449.085 73.7707 447.336 74.752C445.587 75.7333 443.667 76.224 441.576 76.224ZM441.576 72.224C442.92 72.224 444.104 71.9253 445.128 71.328C446.152 70.7093 446.952 69.8347 447.528 68.704C448.104 67.5733 448.392 66.2613 448.392 64.768C448.392 63.2747 448.104 61.9733 447.528 60.864C446.952 59.7333 446.152 58.8693 445.128 58.272C444.104 57.6747 442.92 57.376 441.576 57.376C440.232 57.376 439.037 57.6747 437.992 58.272C436.968 58.8693 436.168 59.7333 435.592 60.864C435.016 61.9733 434.728 63.2747 434.728 64.768C434.728 66.2613 435.016 67.5733 435.592 68.704C436.168 69.8347 436.968 70.7093 437.992 71.328C439.037 71.9253 440.232 72.224 441.576 72.224ZM460.813 60.832C461.389 60.0213 462.178 59.3493 463.181 58.816C464.205 58.2613 465.368 57.984 466.669 57.984C468.184 57.984 469.549 58.3573 470.765 59.104C472.002 59.8507 472.973 60.9173 473.677 62.304C474.402 63.6693 474.765 65.2587 474.765 67.072C474.765 68.8853 474.402 70.496 473.677 71.904C472.973 73.2907 472.002 74.368 470.765 75.136C469.549 75.904 468.184 76.288 466.669 76.288C465.368 76.288 464.216 76.0213 463.213 75.488C462.232 74.9547 461.432 74.2827 460.813 73.472V84.448H456.333V58.272H460.813V60.832ZM470.189 67.072C470.189 66.0053 469.965 65.088 469.517 64.32C469.09 63.5307 468.514 62.9333 467.789 62.528C467.085 62.1227 466.317 61.92 465.485 61.92C464.674 61.92 463.906 62.1333 463.181 62.56C462.477 62.9653 461.901 63.5627 461.453 64.352C461.026 65.1413 460.813 66.0693 460.813 67.136C460.813 68.2027 461.026 69.1307 461.453 69.92C461.901 70.7093 462.477 71.3173 463.181 71.744C463.906 72.1493 464.674 72.352 465.485 72.352C466.317 72.352 467.085 72.1387 467.789 71.712C468.514 71.2853 469.09 70.6773 469.517 69.888C469.965 69.0987 470.189 68.16 470.189 67.072ZM483.237 61.952V70.528C483.237 71.1253 483.375 71.5627 483.653 71.84C483.951 72.096 484.442 72.224 485.125 72.224H487.205V76H484.389C480.613 76 478.725 74.1653 478.725 70.496V61.952H476.613V58.272H478.725V53.888H483.237V58.272H487.205V61.952H483.237ZM492.699 56.16C491.909 56.16 491.248 55.9147 490.715 55.424C490.203 54.912 489.947 54.2827 489.947 53.536C489.947 52.7893 490.203 52.1707 490.715 51.68C491.248 51.168 491.909 50.912 492.699 50.912C493.488 50.912 494.139 51.168 494.651 51.68C495.184 52.1707 495.451 52.7893 495.451 53.536C495.451 54.2827 495.184 54.912 494.651 55.424C494.139 55.9147 493.488 56.16 492.699 56.16ZM494.907 58.272V76H490.427V58.272H494.907ZM507.205 76.288C505.498 76.288 503.962 75.9147 502.597 75.168C501.232 74.4 500.154 73.3227 499.365 71.936C498.597 70.5493 498.213 68.9493 498.213 67.136C498.213 65.3227 498.608 63.7227 499.397 62.336C500.208 60.9493 501.306 59.8827 502.693 59.136C504.08 58.368 505.626 57.984 507.333 57.984C509.04 57.984 510.586 58.368 511.973 59.136C513.36 59.8827 514.448 60.9493 515.237 62.336C516.048 63.7227 516.453 65.3227 516.453 67.136C516.453 68.9493 516.037 70.5493 515.205 71.936C514.394 73.3227 513.285 74.4 511.877 75.168C510.49 75.9147 508.933 76.288 507.205 76.288ZM507.205 72.384C508.016 72.384 508.773 72.192 509.477 71.808C510.202 71.4027 510.778 70.8053 511.205 70.016C511.632 69.2267 511.845 68.2667 511.845 67.136C511.845 65.4507 511.397 64.16 510.501 63.264C509.626 62.3467 508.549 61.888 507.269 61.888C505.989 61.888 504.912 62.3467 504.037 63.264C503.184 64.16 502.757 65.4507 502.757 67.136C502.757 68.8213 503.173 70.1227 504.005 71.04C504.858 71.936 505.925 72.384 507.205 72.384ZM529.563 58.016C531.675 58.016 533.382 58.688 534.683 60.032C535.985 61.3547 536.635 63.2107 536.635 65.6V76H532.155V66.208C532.155 64.8 531.803 63.7227 531.099 62.976C530.395 62.208 529.435 61.824 528.219 61.824C526.982 61.824 526.001 62.208 525.275 62.976C524.571 63.7227 524.219 64.8 524.219 66.208V76H519.739V58.272H524.219V60.48C524.817 59.712 525.574 59.1147 526.491 58.688C527.43 58.24 528.454 58.016 529.563 58.016Z" fill="white"/>
<path d="M601.576 76.224C599.485 76.224 597.565 75.7333 595.816 74.752C594.067 73.7707 592.68 72.416 591.656 70.688C590.632 68.9387 590.12 66.9653 590.12 64.768C590.12 62.592 590.632 60.64 591.656 58.912C592.68 57.1627 594.067 55.7973 595.816 54.816C597.565 53.8347 599.485 53.344 601.576 53.344C603.688 53.344 605.608 53.8347 607.336 54.816C609.085 55.7973 610.461 57.1627 611.464 58.912C612.488 60.64 613 62.592 613 64.768C613 66.9653 612.488 68.9387 611.464 70.688C610.461 72.416 609.085 73.7707 607.336 74.752C605.587 75.7333 603.667 76.224 601.576 76.224ZM601.576 72.224C602.92 72.224 604.104 71.9253 605.128 71.328C606.152 70.7093 606.952 69.8347 607.528 68.704C608.104 67.5733 608.392 66.2613 608.392 64.768C608.392 63.2747 608.104 61.9733 607.528 60.864C606.952 59.7333 606.152 58.8693 605.128 58.272C604.104 57.6747 602.92 57.376 601.576 57.376C600.232 57.376 599.037 57.6747 597.992 58.272C596.968 58.8693 596.168 59.7333 595.592 60.864C595.016 61.9733 594.728 63.2747 594.728 64.768C594.728 66.2613 595.016 67.5733 595.592 68.704C596.168 69.8347 596.968 70.7093 597.992 71.328C599.037 71.9253 600.232 72.224 601.576 72.224ZM620.813 60.832C621.389 60.0213 622.178 59.3493 623.181 58.816C624.205 58.2613 625.368 57.984 626.669 57.984C628.184 57.984 629.549 58.3573 630.765 59.104C632.002 59.8507 632.973 60.9173 633.677 62.304C634.402 63.6693 634.765 65.2587 634.765 67.072C634.765 68.8853 634.402 70.496 633.677 71.904C632.973 73.2907 632.002 74.368 630.765 75.136C629.549 75.904 628.184 76.288 626.669 76.288C625.368 76.288 624.216 76.0213 623.213 75.488C622.232 74.9547 621.432 74.2827 620.813 73.472V84.448H616.333V58.272H620.813V60.832ZM630.189 67.072C630.189 66.0053 629.965 65.088 629.517 64.32C629.09 63.5307 628.514 62.9333 627.789 62.528C627.085 62.1227 626.317 61.92 625.485 61.92C624.674 61.92 623.906 62.1333 623.181 62.56C622.477 62.9653 621.901 63.5627 621.453 64.352C621.026 65.1413 620.813 66.0693 620.813 67.136C620.813 68.2027 621.026 69.1307 621.453 69.92C621.901 70.7093 622.477 71.3173 623.181 71.744C623.906 72.1493 624.674 72.352 625.485 72.352C626.317 72.352 627.085 72.1387 627.789 71.712C628.514 71.2853 629.09 70.6773 629.517 69.888C629.965 69.0987 630.189 68.16 630.189 67.072ZM643.237 61.952V70.528C643.237 71.1253 643.375 71.5627 643.653 71.84C643.951 72.096 644.442 72.224 645.125 72.224H647.205V76H644.389C640.613 76 638.725 74.1653 638.725 70.496V61.952H636.613V58.272H638.725V53.888H643.237V58.272H647.205V61.952H643.237ZM652.699 56.16C651.909 56.16 651.248 55.9147 650.715 55.424C650.203 54.912 649.947 54.2827 649.947 53.536C649.947 52.7893 650.203 52.1707 650.715 51.68C651.248 51.168 651.909 50.912 652.699 50.912C653.488 50.912 654.139 51.168 654.651 51.68C655.184 52.1707 655.451 52.7893 655.451 53.536C655.451 54.2827 655.184 54.912 654.651 55.424C654.139 55.9147 653.488 56.16 652.699 56.16ZM654.907 58.272V76H650.427V58.272H654.907ZM667.205 76.288C665.498 76.288 663.962 75.9147 662.597 75.168C661.232 74.4 660.154 73.3227 659.365 71.936C658.597 70.5493 658.213 68.9493 658.213 67.136C658.213 65.3227 658.608 63.7227 659.397 62.336C660.208 60.9493 661.306 59.8827 662.693 59.136C664.08 58.368 665.626 57.984 667.333 57.984C669.04 57.984 670.586 58.368 671.973 59.136C673.36 59.8827 674.448 60.9493 675.237 62.336C676.048 63.7227 676.453 65.3227 676.453 67.136C676.453 68.9493 676.037 70.5493 675.205 71.936C674.394 73.3227 673.285 74.4 671.877 75.168C670.49 75.9147 668.933 76.288 667.205 76.288ZM667.205 72.384C668.016 72.384 668.773 72.192 669.477 71.808C670.202 71.4027 670.778 70.8053 671.205 70.016C671.632 69.2267 671.845 68.2667 671.845 67.136C671.845 65.4507 671.397 64.16 670.501 63.264C669.626 62.3467 668.549 61.888 667.269 61.888C665.989 61.888 664.912 62.3467 664.037 63.264C663.184 64.16 662.757 65.4507 662.757 67.136C662.757 68.8213 663.173 70.1227 664.005 71.04C664.858 71.936 665.925 72.384 667.205 72.384ZM689.563 58.016C691.675 58.016 693.382 58.688 694.683 60.032C695.985 61.3547 696.635 63.2107 696.635 65.6V76H692.155V66.208C692.155 64.8 691.803 63.7227 691.099 62.976C690.395 62.208 689.435 61.824 688.219 61.824C686.982 61.824 686.001 62.208 685.275 62.976C684.571 63.7227 684.219 64.8 684.219 66.208V76H679.739V58.272H684.219V60.48C684.817 59.712 685.574 59.1147 686.491 58.688C687.43 58.24 688.454 58.016 689.563 58.016Z" fill="white"/>
<path d="M761.576 76.224C759.485 76.224 757.565 75.7333 755.816 74.752C754.067 73.7707 752.68 72.416 751.656 70.688C750.632 68.9387 750.12 66.9653 750.12 64.768C750.12 62.592 750.632 60.64 751.656 58.912C752.68 57.1627 754.067 55.7973 755.816 54.816C757.565 53.8347 759.485 53.344 761.576 53.344C763.688 53.344 765.608 53.8347 767.336 54.816C769.085 55.7973 770.461 57.1627 771.464 58.912C772.488 60.64 773 62.592 773 64.768C773 66.9653 772.488 68.9387 771.464 70.688C770.461 72.416 769.085 73.7707 767.336 74.752C765.587 75.7333 763.667 76.224 761.576 76.224ZM761.576 72.224C762.92 72.224 764.104 71.9253 765.128 71.328C766.152 70.7093 766.952 69.8347 767.528 68.704C768.104 67.5733 768.392 66.2613 768.392 64.768C768.392 63.2747 768.104 61.9733 767.528 60.864C766.952 59.7333 766.152 58.8693 765.128 58.272C764.104 57.6747 762.92 57.376 761.576 57.376C760.232 57.376 759.037 57.6747 757.992 58.272C756.968 58.8693 756.168 59.7333 755.592 60.864C755.016 61.9733 754.728 63.2747 754.728 64.768C754.728 66.2613 755.016 67.5733 755.592 68.704C756.168 69.8347 756.968 70.7093 757.992 71.328C759.037 71.9253 760.232 72.224 761.576 72.224ZM780.813 60.832C781.389 60.0213 782.178 59.3493 783.181 58.816C784.205 58.2613 785.368 57.984 786.669 57.984C788.184 57.984 789.549 58.3573 790.765 59.104C792.002 59.8507 792.973 60.9173 793.677 62.304C794.402 63.6693 794.765 65.2587 794.765 67.072C794.765 68.8853 794.402 70.496 793.677 71.904C792.973 73.2907 792.002 74.368 790.765 75.136C789.549 75.904 788.184 76.288 786.669 76.288C785.368 76.288 784.216 76.0213 783.213 75.488C782.232 74.9547 781.432 74.2827 780.813 73.472V84.448H776.333V58.272H780.813V60.832ZM790.189 67.072C790.189 66.0053 789.965 65.088 789.517 64.32C789.09 63.5307 788.514 62.9333 787.789 62.528C787.085 62.1227 786.317 61.92 785.485 61.92C784.674 61.92 783.906 62.1333 783.181 62.56C782.477 62.9653 781.901 63.5627 781.453 64.352C781.026 65.1413 780.813 66.0693 780.813 67.136C780.813 68.2027 781.026 69.1307 781.453 69.92C781.901 70.7093 782.477 71.3173 783.181 71.744C783.906 72.1493 784.674 72.352 785.485 72.352C786.317 72.352 787.085 72.1387 787.789 71.712C788.514 71.2853 789.09 70.6773 789.517 69.888C789.965 69.0987 790.189 68.16 790.189 67.072ZM803.237 61.952V70.528C803.237 71.1253 803.375 71.5627 803.653 71.84C803.951 72.096 804.442 72.224 805.125 72.224H807.205V76H804.389C800.613 76 798.725 74.1653 798.725 70.496V61.952H796.613V58.272H798.725V53.888H803.237V58.272H807.205V61.952H803.237ZM812.699 56.16C811.909 56.16 811.248 55.9147 810.715 55.424C810.203 54.912 809.947 54.2827 809.947 53.536C809.947 52.7893 810.203 52.1707 810.715 51.68C811.248 51.168 811.909 50.912 812.699 50.912C813.488 50.912 814.139 51.168 814.651 51.68C815.184 52.1707 815.451 52.7893 815.451 53.536C815.451 54.2827 815.184 54.912 814.651 55.424C814.139 55.9147 813.488 56.16 812.699 56.16ZM814.907 58.272V76H810.427V58.272H814.907ZM827.205 76.288C825.498 76.288 823.962 75.9147 822.597 75.168C821.232 74.4 820.154 73.3227 819.365 71.936C818.597 70.5493 818.213 68.9493 818.213 67.136C818.213 65.3227 818.608 63.7227 819.397 62.336C820.208 60.9493 821.306 59.8827 822.693 59.136C824.08 58.368 825.626 57.984 827.333 57.984C829.04 57.984 830.586 58.368 831.973 59.136C833.36 59.8827 834.448 60.9493 835.237 62.336C836.048 63.7227 836.453 65.3227 836.453 67.136C836.453 68.9493 836.037 70.5493 835.205 71.936C834.394 73.3227 833.285 74.4 831.877 75.168C830.49 75.9147 828.933 76.288 827.205 76.288ZM827.205 72.384C828.016 72.384 828.773 72.192 829.477 71.808C830.202 71.4027 830.778 70.8053 831.205 70.016C831.632 69.2267 831.845 68.2667 831.845 67.136C831.845 65.4507 831.397 64.16 830.501 63.264C829.626 62.3467 828.549 61.888 827.269 61.888C825.989 61.888 824.912 62.3467 824.037 63.264C823.184 64.16 822.757 65.4507 822.757 67.136C822.757 68.8213 823.173 70.1227 824.005 71.04C824.858 71.936 825.925 72.384 827.205 72.384ZM849.563 58.016C851.675 58.016 853.382 58.688 854.683 60.032C855.985 61.3547 856.635 63.2107 856.635 65.6V76H852.155V66.208C852.155 64.8 851.803 63.7227 851.099 62.976C850.395 62.208 849.435 61.824 848.219 61.824C846.982 61.824 846.001 62.208 845.275 62.976C844.571 63.7227 844.219 64.8 844.219 66.208V76H839.739V58.272H844.219V60.48C844.817 59.712 845.574 59.1147 846.491 58.688C847.43 58.24 848.454 58.016 849.563 58.016Z" fill="white"/>
<rect x="1605" y="24" width="210" height="81" rx="40.5" fill="#FFE926"/>
<path d="M1699.69 71.448H1707.05V75H1695.21V52.664H1699.69V71.448ZM1717.77 75.288C1716.06 75.288 1714.52 74.9147 1713.16 74.168C1711.79 73.4 1710.72 72.3227 1709.93 70.936C1709.16 69.5493 1708.78 67.9493 1708.78 66.136C1708.78 64.3227 1709.17 62.7227 1709.96 61.336C1710.77 59.9493 1711.87 58.8827 1713.26 58.136C1714.64 57.368 1716.19 56.984 1717.9 56.984C1719.6 56.984 1721.15 57.368 1722.54 58.136C1723.92 58.8827 1725.01 59.9493 1725.8 61.336C1726.61 62.7227 1727.02 64.3227 1727.02 66.136C1727.02 67.9493 1726.6 69.5493 1725.77 70.936C1724.96 72.3227 1723.85 73.4 1722.44 74.168C1721.05 74.9147 1719.5 75.288 1717.77 75.288ZM1717.77 71.384C1718.58 71.384 1719.34 71.192 1720.04 70.808C1720.76 70.4027 1721.34 69.8053 1721.77 69.016C1722.19 68.2267 1722.41 67.2667 1722.41 66.136C1722.41 64.4507 1721.96 63.16 1721.06 62.264C1720.19 61.3467 1719.11 60.888 1717.83 60.888C1716.55 60.888 1715.47 61.3467 1714.6 62.264C1713.75 63.16 1713.32 64.4507 1713.32 66.136C1713.32 67.8213 1713.74 69.1227 1714.57 70.04C1715.42 70.936 1716.49 71.384 1717.77 71.384ZM1737.25 56.984C1738.57 56.984 1739.73 57.2507 1740.73 57.784C1741.74 58.296 1742.53 58.968 1743.1 59.8V57.272H1747.61V75.128C1747.61 76.7707 1747.28 78.232 1746.62 79.512C1745.96 80.8133 1744.97 81.8373 1743.65 82.584C1742.32 83.352 1740.72 83.736 1738.85 83.736C1736.33 83.736 1734.26 83.1493 1732.64 81.976C1731.04 80.8027 1730.13 79.2027 1729.92 77.176H1734.37C1734.6 77.9867 1735.1 78.6267 1735.87 79.096C1736.66 79.5867 1737.61 79.832 1738.72 79.832C1740.02 79.832 1741.08 79.4373 1741.89 78.648C1742.7 77.88 1743.1 76.7067 1743.1 75.128V72.376C1742.53 73.208 1741.73 73.9013 1740.7 74.456C1739.7 75.0107 1738.55 75.288 1737.25 75.288C1735.75 75.288 1734.39 74.904 1733.15 74.136C1731.91 73.368 1730.93 72.2907 1730.21 70.904C1729.5 69.496 1729.15 67.8853 1729.15 66.072C1729.15 64.28 1729.5 62.6907 1730.21 61.304C1730.93 59.9173 1731.9 58.8507 1733.12 58.104C1734.36 57.3573 1735.73 56.984 1737.25 56.984ZM1743.1 66.136C1743.1 65.048 1742.89 64.12 1742.46 63.352C1742.04 62.5627 1741.46 61.9653 1740.73 61.56C1740.01 61.1333 1739.23 60.92 1738.4 60.92C1737.57 60.92 1736.8 61.1227 1736.09 61.528C1735.39 61.9333 1734.81 62.5307 1734.37 63.32C1733.94 64.088 1733.73 65.0053 1733.73 66.072C1733.73 67.1387 1733.94 68.0773 1734.37 68.888C1734.81 69.6773 1735.39 70.2853 1736.09 70.712C1736.82 71.1387 1737.59 71.352 1738.4 71.352C1739.23 71.352 1740.01 71.1493 1740.73 70.744C1741.46 70.3173 1742.04 69.72 1742.46 68.952C1742.89 68.1627 1743.1 67.224 1743.1 66.136ZM1754.26 55.16C1753.47 55.16 1752.81 54.9147 1752.28 54.424C1751.77 53.912 1751.51 53.2827 1751.51 52.536C1751.51 51.7893 1751.77 51.1707 1752.28 50.68C1752.81 50.168 1753.47 49.912 1754.26 49.912C1755.05 49.912 1755.7 50.168 1756.21 50.68C1756.75 51.1707 1757.01 51.7893 1757.01 52.536C1757.01 53.2827 1756.75 53.912 1756.21 54.424C1755.7 54.9147 1755.05 55.16 1754.26 55.16ZM1756.47 57.272V75H1751.99V57.272H1756.47ZM1770.72 57.016C1772.83 57.016 1774.54 57.688 1775.84 59.032C1777.14 60.3547 1777.79 62.2107 1777.79 64.6V75H1773.31V65.208C1773.31 63.8 1772.96 62.7227 1772.26 61.976C1771.55 61.208 1770.59 60.824 1769.38 60.824C1768.14 60.824 1767.16 61.208 1766.43 61.976C1765.73 62.7227 1765.38 63.8 1765.38 65.208V75H1760.9V57.272H1765.38V59.48C1765.97 58.712 1766.73 58.1147 1767.65 57.688C1768.59 57.24 1769.61 57.016 1770.72 57.016Z" fill="black"/>
<path d="M1664.26 55.4073L1670.58 48.7845M1674.19 45L1670.58 48.7845L1674.19 45ZM1656.84 63.1844C1657.77 64.1485 1658.51 65.2963 1659.02 66.5617C1659.53 67.8271 1659.79 69.1852 1659.79 70.5578C1659.8 71.9304 1659.54 73.2903 1659.04 74.5593C1658.54 75.8282 1657.81 76.9812 1656.88 77.9518C1655.96 78.9223 1654.86 79.6913 1653.65 80.2144C1652.43 80.7376 1651.14 81.0045 1649.83 80.9999C1648.52 80.9953 1647.22 80.7193 1646.01 80.1877C1644.8 79.656 1643.71 78.8793 1642.79 77.9023C1640.98 75.9394 1639.98 73.3105 1640 70.5818C1640.02 67.853 1641.07 65.2427 1642.91 63.3131C1644.75 61.3835 1647.24 60.289 1649.85 60.2653C1652.45 60.2416 1654.96 61.2906 1656.83 63.1863L1656.84 63.1844ZM1656.84 63.1844L1664.26 55.4073L1656.84 63.1844ZM1664.26 55.4073L1669.68 61.0841L1676 54.4612L1670.58 48.7845L1664.26 55.4073Z" stroke="black" stroke-width="3" stroke-linecap="round" stroke-linejoin="round"/>
<defs>
<filter id="filter0_b_66_52" x="-10" y="-10" width="1940" height="150" filterUnits="userSpaceOnUse" color-interpolation-filters="sRGB">
<feFlood flood-opacity="0" result="BackgroundImageFix"/>
<feGaussianBlur in="BackgroundImage" stdDeviation="5"/>
<feComposite in2="SourceAlpha" operator="in" result="effect1_backgroundBlur_66_52"/>
<feBlend mode="normal" in="SourceGraphic" in2="effect1_backgroundBlur_66_52" result="shape"/>
</filter>
<linearGradient id="paint0_linear_66_52" x1="960" y1="0" x2="960" y2="130" gradientUnits="userSpaceOnUse">
<stop offset="0.463542" stop-color="#010D1D"/>
<stop offset="1" stop-color="#010D1D" stop-opacity="0"/>
</linearGradient>
</defs>
</svg>
